<svg xmlns="http://www.w3.org/2000/svg" xmlns:xlink="http://www.w3.org/1999/xlink" width="79.361" height="102.823" viewBox="0 0 79.361 102.823"><defs><filter id="a" x="0" y="0" width="79.361" height="102.823" filterUnits="userSpaceOnUse"><feOffset dx="2" dy="4" input="SourceAlpha"/><feGaussianBlur stdDeviation="2" result="b"/><feFlood flood-opacity="0.161"/><feComposite operator="in" in2="b"/><feComposite in="SourceGraphic"/></filter><filter id="c" x="14.694" y="19.294" width="51.232" height="40.579" filterUnits="userSpaceOnUse"><feOffset dx="2" dy="4" input="SourceAlpha"/><feGaussianBlur stdDeviation="2" result="d"/><feFlood flood-opacity="0.161"/><feComposite operator="in" in2="d"/><feComposite in="SourceGraphic"/></filter></defs><g transform="translate(-58.329 4)"><g transform="matrix(1, 0, 0, 1, 58.33, -4)" filter="url(#a)"><path d="M-5573.99-698.177h0a147.346,147.346,0,0,1-16.84-18.211,100.84,100.84,0,0,1-11.578-18.348c-3.492-7.356-5.263-14.282-5.263-20.583a33.469,33.469,0,0,1,2.647-13.11,33.568,33.568,0,0,1,7.218-10.706,33.567,33.567,0,0,1,10.706-7.218A33.466,33.466,0,0,1-5573.99-789a33.47,33.47,0,0,1,13.11,2.647,33.561,33.561,0,0,1,10.705,7.218,33.561,33.561,0,0,1,7.218,10.706,33.472,33.472,0,0,1,2.647,13.111c0,6.647-1.771,13.787-5.263,21.221a94.91,94.91,0,0,1-11.577,18.276,132.824,132.824,0,0,1-16.84,17.643Zm-.18-85.822a28.532,28.532,0,0,0-28.5,28.5,28.532,28.532,0,0,0,28.5,28.5,28.532,28.532,0,0,0,28.5-28.5A28.532,28.532,0,0,0-5574.17-784Z" transform="translate(5611.67 791)" fill="#343a40"/></g><g transform="translate(77.023 -41.331)"><g transform="matrix(1, 0, 0, 1, -18.69, 37.33)" filter="url(#c)"><path d="M38.382,67.1H35.5a.85.85,0,0,0-.588.236l-.614.588a30.614,30.614,0,0,0-4.527-7.217,5.665,5.665,0,0,0-4.4-2.085H13.856a5.663,5.663,0,0,0-4.4,2.085A29.913,29.913,0,0,0,4.92,67.919l-.605-.58a.85.85,0,0,0-.588-.236H.85a.85.85,0,0,0-.85.85V69.92a.85.85,0,0,0,.8.848l2.957.186a18.858,18.858,0,0,0-.8,6c0,2.381.476,3.946,1.3,4.959v4.584a.712.712,0,0,0,.712.712H8.246a.712.712,0,0,0,.712-.712V83.646H30.274v2.846a.712.712,0,0,0,.712.712h3.274a.712.712,0,0,0,.712-.712V81.908c.827-1.013,1.3-2.578,1.3-4.959a18.858,18.858,0,0,0-.8-6l2.957-.186a.85.85,0,0,0,.8-.848V67.952A.85.85,0,0,0,38.382,67.1ZM11.885,62.7a2.538,2.538,0,0,1,1.971-.934h11.52a2.538,2.538,0,0,1,1.971.934,29.613,29.613,0,0,1,3.369,4.993l-22.219,0A29.8,29.8,0,0,1,11.885,62.7ZM9.464,80.165c-1.629,0-2.95-.532-2.95-1.823S6.993,76,8.622,76s3.792,1.047,3.792,2.338S11.093,80.165,9.464,80.165ZM22.708,79.9H16.524A1.693,1.693,0,0,1,14.833,78.2a.474.474,0,0,1,.474-.474h8.619a.473.473,0,0,1,.473.474A1.693,1.693,0,0,1,22.708,79.9Zm7.06.269c-1.629,0-2.95-.532-2.95-1.823S28.981,76,30.61,76s2.109,1.047,2.109,2.338S31.4,80.165,29.768,80.165Z" transform="translate(18.69 -37.33)" fill="#343a40"/></g></g></g></svg>