<svg xmlns="http://www.w3.org/2000/svg" width="1200" height="628" viewBox="0 0 1200 628"><rect width="1200" height="628" fill="#f7f7f7"/><path d="M212.551,108.939A38,38,0,0,0,177.126,57.3a37.762,37.762,0,0,0-21.073,6.4,63.264,63.264,0,0,0-118.1,31.55c0,1.067.04,2.135.079,3.2a56.948,56.948,0,0,0,18.9,110.664h145.5a50.6,50.6,0,0,0,10.121-100.187Zm-57.012,24.276H129.681V177.5a6.345,6.345,0,0,1-6.326,6.326H104.378a6.345,6.345,0,0,1-6.326-6.326V133.215H72.194a6.314,6.314,0,0,1-4.468-10.794L109.4,80.749a6.348,6.348,0,0,1,8.935,0l41.672,41.672a6.323,6.323,0,0,1-4.468,10.794Z" transform="translate(473 193)" fill="#7e7e7e"/></svg>